# xmcd
#
# Track frame offsets:
#   150
#   12437
#   27792
#   41850
#   59393
#   77046
#   97097
#   108671
#   122914
#   137949
#   149895
#   168173
#   182721
#   202186
#   215649
#   229838
#   242516
#   258880
#   273204
#   291323
#
# Disc length: 4074 seconds
#
# Revision: 0
# Processed by: cddbd v1.5.1PL0 Copyright (c) Steve Scherf et al.
# Submitted via: uFREEDB ActiveX Control 1.5
#
DISCID=390fe814
DTITLE=Edson e Hudson - As melhores
DYEAR=2004
DGENRE=Country
TTITLE0=1
TTITLE1=2
TTITLE2=3
TTITLE3=Fogo do Desejo
TTITLE4=Musica no Ar
TTITLE5=4
TTITLE6=5
TTITLE7=Azul
TTITLE8=Chora Viola
TTITLE9=Se ficar o Bicho Come
TTITLE10=6
TTITLE11=7
TTITLE12=8
TTITLE13=9
TTITLE14=10
TTITLE15=A Matogrossense
TTITLE16=14
TTITLE17=41
TTITLE18=20
TTITLE19=Briga de Salão
EXTD=
EXTT0=
EXTT1=
EXTT2=
EXTT3=
EXTT4=
EXTT5=
EXTT6=
EXTT7=
EXTT8=
EXTT9=
EXTT10=
EXTT11=
EXTT12=
EXTT13=
EXTT14=
EXTT15=
EXTT16=
EXTT17=
EXTT18=
EXTT19=
PLAYORDER=
